<svg
   xmlns:dc="http://purl.org/dc/elements/1.1/"
   xmlns:cc="http://creativecommons.org/ns#"
   xmlns:rdf="http://www.w3.org/1999/02/22-rdf-syntax-ns#"
   xmlns:svg="http://www.w3.org/2000/svg"
   xmlns="http://www.w3.org/2000/svg"
   id="svg9276"
   version="1.1"
   viewBox="0 0 8.4666659 8.4666669"
   height="32"
   width="32">
  <defs
     id="defs9270" />
  <metadata
     id="metadata9273">
    <rdf:RDF>
      <cc:Work
         rdf:about="">
        <dc:format>image/svg+xml</dc:format>
        <dc:type
           rdf:resource="http://purl.org/dc/dcmitype/StillImage" />
        <dc:title></dc:title>
      </cc:Work>
    </rdf:RDF>
  </metadata>
  <g
     transform="translate(0,-288.53332)"
     id="layer1">
    <path
       id="path13865"
       d="m 1.0474797,289.73598 v 5.2e-4 c -0.15840024,0 -0.30144899,0.0434 -0.42839768,0.13074 -0.0423163,0.0291 -0.082618,0.0635 -0.12143965,0.10232 -0.0387005,0.0387 -0.0727591,0.0787 -0.10180258,0.12091 -7.284e-5,1.1e-4 7.276e-5,4.2e-4 0,5.2e-4 -0.029,0.0422 -0.0535112,0.0861 -0.0728638,0.13177 -5.826e-5,1.4e-4 5.818e-5,3.8e-4 0,5.2e-4 -0.0193146,0.0457 -0.0342517,0.093 -0.043925,0.1421 -3.223e-5,1.7e-4 3.212e-5,3.6e-4 0,5.2e-4 -0.009641,0.0491 -0.0144694,0.10034 -0.0144694,0.15296 v 2.77843 c 0,0.21122 0.0777738,0.39722 0.23306075,0.55861 0.15528642,0.16137 0.33863702,0.24235 0.54983736,0.24235 h 0.8004681 2.8718959 0.8004682 c 0.2112003,0 0.3945507,-0.081 0.5498374,-0.24235 0.1552868,-0.16139 0.2330606,-0.34739 0.2330606,-0.55861 v -2.77843 c 0,-0.21117 -0.077774,-0.39404 -0.2330606,-0.5493 -0.038822,-0.0388 -0.079123,-0.0732 -0.1214399,-0.10232 -0.1269486,-0.0873 -0.2699975,-0.13074 -0.4283975,-0.13074 v -5.2e-4 z"
       style="fill:#ffc7a3;fill-opacity:1;stroke:#e96d1f;stroke-width:0.26457992;stroke-miterlimit:4;stroke-dasharray:none;stroke-opacity:1;paint-order:fill markers stroke" />
    <path
       style="fill:#e96d1f;fill-opacity:1;stroke-width:0.3170979"
       d="m 6.6263712,293.87857 1.575712,1.57563 -0.475664,0.47541 -1.575712,-1.57565 v -0.25285 l -0.089104,-0.0896 c 0.090881,-0.0909 0.089927,-0.0896 0.2229289,-0.22255 l 0.089104,0.0891 z"
       id="path13995" />
    <path
       style="stroke-width:0.20327616;fill:#0a0400;fill-opacity:1"
       d="m 4.089862,292.08056 q 0.2669042,0 0.5811727,0.0763 0.3142695,0.0763 0.5811748,0.24779 0.2669052,0.17156 0.2669052,0.3907 v 0.50492 H 4.2994413 v -0.50492 q 0,-0.41936 -0.4002564,-0.70517 0.066669,-0.0101 0.1906771,-0.0101 z m -1.6197259,0 q 0.2669053,0 0.5811738,0.0763 0.3142685,0.0763 0.5764985,0.24779 0.2622298,0.17156 0.2620269,0.3907 v 0.50492 H 1.0406791 v -0.50492 q 0,-0.21914 0.2669051,-0.3907 0.2669047,-0.17155 0.5811742,-0.24779 0.3142686,-0.0763 0.5811738,-0.0763 z m 0,-0.40005 q -0.2477968,0 -0.4287153,-0.1811 -0.1809184,-0.18113 -0.1811213,-0.4287 -2.04e-4,-0.24759 0.1811213,-0.42872 0.1813244,-0.18111 0.4287153,-0.18111 0.2473901,0 0.424039,0.18111 0.1766491,0.18113 0.1762432,0.42872 -4.07e-4,0.24757 -0.1762432,0.4287 -0.175836,0.1811 -0.424039,0.1811 z m 1.6197259,0 q -0.247797,0 -0.4287163,-0.1811 -0.1809175,-0.18113 -0.1811205,-0.4287 -2.039e-4,-0.24759 0.1811205,-0.42872 0.1813253,-0.18111 0.4287163,-0.18111 0.24739,0 0.4287143,0.18111 0.1813244,0.18113 0.1811214,0.42872 -2.03e-4,0.24757 -0.1811214,0.4287 -0.1809184,0.1811 -0.4287143,0.1811 z"
       id="path4873" />
  </g>
</svg>
